<svg width="75" height="75" viewBox="0 0 75 75" fill="none" xmlns="http://www.w3.org/2000/svg">
<g filter="url(#filter0_d_36_306)">
<path d="M57.3614 37.1576C58.0414 35.1476 58.4514 33.1076 58.6314 31.0776C58.2414 27.9576 57.2614 24.9476 55.7714 22.2076C52.5914 18.4976 48.3414 15.6276 43.3114 14.1376C36.5614 12.1376 29.6414 12.9876 23.8414 15.9876L33.1414 15.1976L33.3914 18.1876L23.0814 19.0576L22.8614 16.5176C17.1914 19.7576 12.7114 25.0976 10.7114 31.8576C10.1114 33.8876 9.77144 35.9376 9.66144 37.9676C10.0614 40.4776 10.8514 42.8976 11.9814 45.1576C15.0214 48.9876 19.1714 52.0076 24.1414 53.6776C37.8714 58.2876 52.7414 50.8976 57.3514 37.1676L57.3614 37.1576ZM46.2414 19.6076L53.9314 26.5276L51.9314 28.7576L44.2414 21.8376L46.2414 19.6076ZM47.6314 32.3076C47.1014 33.8776 45.4014 34.7176 43.8314 34.1976C42.2614 33.6676 41.4214 31.9676 41.9414 30.3976C42.4714 28.8276 44.1714 27.9876 45.7414 28.5076C47.3114 29.0376 48.1514 30.7376 47.6314 32.2976V32.3076ZM28.1614 22.6076C29.7314 23.1376 30.5714 24.8376 30.0514 26.3976C29.5214 27.9676 27.8214 28.8076 26.2514 28.2876C24.6814 27.7576 23.8414 26.0576 24.3614 24.4876C24.8914 22.9176 26.5914 22.0776 28.1514 22.6076H28.1614ZM18.0614 40.8576L15.8414 38.8376C20.1914 34.0576 27.0114 32.0876 33.2214 33.8276C39.4714 35.5776 44.3114 40.8176 45.5314 47.1976C45.6414 47.7576 45.7214 48.3276 45.7714 48.8876L42.7814 49.1576C42.7414 48.6976 42.6714 48.2276 42.5814 47.7676C41.5714 42.4976 37.5714 38.1576 32.4114 36.7176C27.2814 35.2876 21.6514 36.9076 18.0514 40.8576H18.0614Z" fill="#FFCE00"/>
<path d="M58.6315 31.0876C58.4515 33.1176 58.0415 35.1476 57.3615 37.1676C52.7515 50.8976 37.8815 58.2876 24.1515 53.6776C19.1715 52.0076 15.0315 48.9876 11.9915 45.1576C14.8215 50.7976 19.7815 55.3676 26.2215 57.5376C39.1415 61.8776 53.1915 54.8976 57.5415 41.9676C58.7515 38.3476 59.0815 34.6476 58.6415 31.0976L58.6315 31.0876Z" fill="#FFB100"/>
<path d="M22.8615 16.5175L22.8215 16.0776L23.8315 15.9876C29.6315 12.9976 36.5514 12.1476 43.3014 14.1376C48.3414 15.6276 52.5815 18.4976 55.7615 22.2076C52.8815 16.9376 48.0815 12.6976 41.9515 10.6376C29.0215 6.29755 14.9815 13.2775 10.6315 26.2076C9.31145 30.1276 9.04145 34.1376 9.65145 37.9576C9.75145 35.9276 10.1014 33.8876 10.7014 31.8476C12.7014 25.0976 17.1814 19.7476 22.8514 16.5075L22.8615 16.5175Z" fill="#FFE454"/>
<path d="M43.9814 4.61758C27.7314 -0.832422 10.0814 7.93758 4.62143 24.1876C-0.83857 40.4376 7.94143 58.0876 24.1914 63.5476C40.4414 69.0076 58.0914 60.2276 63.5514 43.9776C69.0114 27.7276 60.2314 10.0776 43.9814 4.61758ZM25.2614 60.3576C18.0414 57.9376 12.4814 52.8076 9.31143 46.4876C8.05143 43.9676 7.17143 41.2476 6.71143 38.4376C6.02143 34.1576 6.33143 29.6476 7.80143 25.2576C12.6714 10.7676 28.4214 2.93758 42.9114 7.80758C49.7814 10.1176 55.1614 14.8776 58.3914 20.7876C60.0614 23.8476 61.1614 27.2276 61.6014 30.7276C62.0914 34.7176 61.7314 38.8676 60.3614 42.9176C55.4914 57.4076 39.7414 65.2376 25.2614 60.3676V60.3576ZM14.3814 55.9076C14.3814 55.9076 14.4614 55.9776 14.5014 56.0176C14.4614 55.9776 14.4214 55.9476 14.3814 55.9076Z" fill="white"/>
<path d="M42.9114 7.79758C28.4214 2.92758 12.6714 10.7576 7.80141 25.2476C2.93141 39.7376 10.7614 55.4876 25.2614 60.3576C39.7514 65.2276 55.5014 57.3976 60.3714 42.9076C65.2414 28.4176 57.4114 12.6676 42.9214 7.79758H42.9114ZM26.2114 57.5276C19.7714 55.3676 14.8114 50.7876 11.9814 45.1476C10.8514 42.8976 10.0714 40.4676 9.66141 37.9576C9.05141 34.1376 9.32141 30.1176 10.6414 26.2076C14.9814 13.2876 29.0314 6.29758 41.9614 10.6376C48.0914 12.6976 52.8814 16.9376 55.7714 22.2076C57.2614 24.9376 58.2514 27.9476 58.6314 31.0776C59.0714 34.6276 58.7414 38.3376 57.5314 41.9476C53.1914 54.8776 39.1414 61.8576 26.2114 57.5176V57.5276ZM16.5014 53.5576C16.5014 53.5576 16.5714 53.6276 16.6114 53.6576C16.5714 53.6276 16.5414 53.5876 16.5014 53.5576Z" fill="black"/>
<path d="M28.1614 22.6076C29.7314 23.1376 30.5714 24.8376 30.0514 26.3976C29.5214 27.9676 27.8214 28.8076 26.2514 28.2876C24.6814 27.7576 23.8414 26.0576 24.3614 24.4876C24.8914 22.9176 26.5914 22.0776 28.1514 22.6076H28.1614Z" fill="black"/>
<path d="M45.7414 28.5176C47.3114 29.0476 48.1514 30.7476 47.6314 32.3076C47.1014 33.8776 45.4014 34.7176 43.8314 34.1976C42.2614 33.6676 41.4214 31.9676 41.9414 30.3976C42.4714 28.8276 44.1714 27.9876 45.7414 28.5076V28.5176Z" fill="black"/>
<path d="M46.2324 19.6028L44.2258 21.8329L51.9124 28.749L53.919 26.5189L46.2324 19.6028Z" fill="black"/>
<path d="M22.8614 16.5176L23.0814 19.0676L33.3814 18.1976L33.1314 15.2076L23.8314 15.9976L22.8214 16.0776L22.8614 16.5176Z" fill="black"/>
<path d="M42.5814 47.7675C42.6714 48.2275 42.7314 48.6975 42.7814 49.1575L45.7614 48.8875C45.7114 48.3275 45.6314 47.7575 45.5214 47.1975C44.3014 40.8175 39.4614 35.5675 33.2114 33.8275C27.0014 32.0875 20.1714 34.0575 15.8314 38.8375L18.0514 40.8575C21.6414 36.9075 27.2814 35.2875 32.4114 36.7175C37.5814 38.1575 41.5714 42.4975 42.5814 47.7675Z" fill="black"/>
</g>
<defs>
<filter id="filter0_d_36_306" x="0" y="0" width="74.1729" height="74.169" filterUnits="userSpaceOnUse" color-interpolation-filters="sRGB">
<feFlood flood-opacity="0" result="BackgroundImageFix"/>
<feColorMatrix in="SourceAlpha" type="matrix" values="0 0 0 0 0 0 0 0 0 0 0 0 0 0 0 0 0 0 127 0" result="hardAlpha"/>
<feOffset dx="3" dy="3"/>
<feGaussianBlur stdDeviation="3"/>
<feColorMatrix type="matrix" values="0 0 0 0 0 0 0 0 0 0 0 0 0 0 0 0 0 0 0.1 0"/>
<feBlend mode="normal" in2="BackgroundImageFix" result="effect1_dropShadow_36_306"/>
<feBlend mode="normal" in="SourceGraphic" in2="effect1_dropShadow_36_306" result="shape"/>
</filter>
</defs>
</svg>
